<?xml version="1.0" encoding="UTF-8"?>
<svg id="Layer_3" data-name="Layer 3" xmlns="http://www.w3.org/2000/svg" viewBox="40 0 1290 1390" preserveAspectRatio="xMinYMin">
  <path stroke="silver" fill="silver" d="M684.92,1346.5c-1.51-.33-3.01-.94-4.52-.96-9.66-.14-19.36,.31-28.98-.31-12.64-.81-25.26-2.21-37.84-3.77-13.87-1.72-27.78-3.4-41.49-6.05-15.77-3.04-31.35-7.07-46.98-10.77-31.61-7.48-61.82-19.02-91.48-32.03-29.79-13.07-58.5-28.31-85.49-46.46-18.89-12.7-37.28-26.24-55.08-40.41-14.2-11.31-27.41-23.91-40.65-36.37-23.22-21.86-44.29-45.69-62.75-71.7-13.27-18.7-26.4-37.56-38.34-57.11-16.03-26.24-29.85-53.75-40.48-82.68-7.86-21.41-16.05-42.81-22.08-64.77-6.48-23.59-11.15-47.73-15.6-71.82-3.74-20.26-6.39-40.74-6.22-61.48,.06-8.1-.78-16.21-.89-24.32-.16-12.21-.72-24.46,.11-36.61,1.37-20.22,2.87-40.5,5.85-60.52,3.66-24.63,8.12-49.21,13.73-73.46,3.79-16.41,9.84-32.33,15.44-48.27,9.78-27.85,21.63-54.83,35.38-80.96,17.59-33.45,37.65-65.34,61.62-94.61,12.33-15.05,25.24-29.64,38.21-44.15,22.36-25.03,48.12-46.3,74.54-66.87,28.08-21.86,58.15-40.52,89.63-56.86,31.7-16.45,64.67-29.97,98.79-40.71,28.26-8.9,56.99-15.81,86.17-20.54,18.33-2.97,36.91-4.62,55.44-6.15,12.39-1.02,24.87-.94,37.32-1.07,14.88-.16,29.8-.64,44.64,.18,15.6,.86,31.17,2.72,46.66,4.85,15.94,2.19,31.85,4.78,47.61,7.97,41.39,8.38,81.25,21.67,119.93,38.58,24.95,10.91,49.02,23.49,72.28,37.64,29.07,17.68,56.77,37.26,82.15,59.96,13.9,12.44,28.01,24.76,40.95,38.16,34.45,35.68,64.57,74.7,89.51,117.73,14.39,24.82,27.81,50.09,38.06,76.84,9.04,23.59,17.58,47.46,24.63,71.7,6.24,21.49,10.74,43.55,14.83,65.57,2.82,15.18,4.05,30.71,5.2,46.14,1.2,16.17,1.71,32.41,2.05,48.64,.32,15.21,.66,30.47-.17,45.65-.79,14.44-2.81,28.83-4.77,43.18-2.05,14.99-4.45,29.95-7.15,44.84-1.64,9.03-3.65,18.07-6.39,26.82-8.28,26.42-16.21,53-25.84,78.94-6.62,17.85-15.73,34.78-23.91,52.03-4.15,8.76-8.15,17.66-13.21,25.89-9.22,14.99-18.64,29.92-28.96,44.16-12.87,17.78-26.66,34.91-40.21,52.2-3.48,4.43-7.49,8.45-11.34,12.58-13.08,14.02-26.21,27.98-41.05,40.22-15.77,13-30.83,26.99-47.38,38.9-20.59,14.81-41.95,28.69-63.79,41.61-29.35,17.36-60.32,31.72-92.57,42.8-23.14,7.95-46.81,14.41-70.44,20.82-13.6,3.68-27.53,6.18-41.41,8.73-8.73,1.6-17.64,2.14-26.43,3.46-23.99,3.6-48.13,4.39-72.33,4.04-.5,0-1,.61-1.51,.94h-3ZM935.73,296.44c14.63,9.83,28.9,18.83,42.53,28.72,22.32,16.2,43.49,33.85,62.38,54.05,8.6,9.21,17.08,18.54,25.28,28.11,20.44,23.85,38.08,49.66,53.27,77.16,18.69,33.84,33.71,69.19,43.7,106.59,.85,3.19,2.47,4.24,5.75,3.35,17.16-4.66,34.36-9.16,51.5-13.92,.94-.26,2.13-2.54,1.89-3.59-1.07-4.81-2.58-9.52-3.97-14.26-11.4-38.92-27.46-75.84-47.53-111.05-1.12-1.96-2.39-3.84-3.59-5.76,1.96-1.16,3.92-2.34,5.89-3.48,9.16-5.27,18.35-10.49,27.49-15.79,7.23-4.19,14.42-8.46,22.02-12.94-55.55-94.32-130-168.86-224.56-224.55-20.85,36.05-41.49,71.76-62.06,107.34ZM248.82,1163.97c79.22,77.69,170.91,130.64,276.01,159.34,10.78-40.38,21.37-80.04,32.1-120.25-7.77-2.55-15.18-5.12-22.67-7.4-31.49-9.6-61.22-23.19-89.94-39.15-2.08-1.15-4.2-2.23-6.29-3.35,1.2-2.24,2.34-4.53,3.62-6.72,5.22-8.95,10.55-17.84,15.71-26.83,4.06-7.07,7.93-14.26,11.89-21.42-.89-.77-1.36-1.24-1.89-1.61-18.11-12.81-36.52-25.23-54.24-38.55-9.75-7.33-18.39-16.15-27.48-24.35-1.8-1.62-2.85-3.19-5.51-.46-14.93,15.34-30.11,30.45-45.24,45.59-17.86,17.87-35.72,35.74-53.66,53.53-10.57,10.48-21.3,20.8-32.41,31.63Zm876.34-.79c6.62-6.81,12.31-12.08,17.32-17.93,11.58-13.51,23.07-27.12,34.17-41.03,20.04-25.12,37.57-51.99,52.56-80.37,10.85-20.53,21.41-41.33,30.15-62.81,9.33-22.91,16.39-46.74,24.36-70.2,.91-2.67,.3-4.7-3.14-5.41-5.14-1.07-10.16-2.7-15.26-3.98-13.54-3.37-27.14-6.51-40.63-10.08-8.47-2.24-16.75-5.22-25.19-7.59-13.75-3.87-27.56-7.55-41.36-11.23-16.17-4.31-32.39-8.43-48.53-12.85-6.63-1.82-6.76-1.8-8.68,4.41-3.59,11.59-6.64,23.45-11.4,34.56-7.9,18.43-16.9,36.39-25.59,54.48-3.04,6.33-3.28,6.29,2.79,9.78,16.47,9.47,32.97,18.89,49.57,28.4-2.75,4.35-5.72,9.05-8.7,13.76-15.04,23.79-31.47,46.54-50.33,67.47-5.21,5.79-10.64,11.38-16,17.03-2.59,2.73-3.91,4.68-.11,8.21,14.01,13.03,27.64,26.49,41.22,39.97,5.71,5.66,10.92,11.82,16.43,17.68,8.51,9.03,17.1,17.99,26.35,27.72ZM209.66,854.12c9.04,23.95,17.06,47.44,26.77,70.21,6.76,15.84,15.89,30.66,23.78,46.03,.46,.9-.25,3.32-1.11,3.82-5.95,3.43-12.17,6.37-18.13,9.77-12.64,7.22-25.18,14.63-37.38,21.74-24-42.14-43-86.78-55.85-134.13-1.26,0-2.29-.21-3.21,.03-17.63,4.65-35.25,9.34-52.86,14.07-2.58,.69-3.08,2.24-2.2,4.89,5.66,17.16,10.72,34.53,16.8,51.53,9.64,26.98,21.5,53.02,35.55,78.02,2.78,4.95,6.18,9.56,8.97,14.51,3.05,5.41,5.15,11.42,8.67,16.48,14.1,20.31,27.95,40.85,43.13,60.34,12.87,16.52,27.5,31.66,41.21,47.54,2.93,3.39,4.78,2.6,7.55-.2,15.33-15.54,30.83-30.92,46.26-46.35,14.42-14.42,28.85-28.85,43.27-43.27,12.37-12.37,24.7-24.79,37.13-37.1,2.01-1.99,2.67-3.45,.37-5.73-18.39-18.22-34.49-38.33-48.94-59.79-5.71-8.48-11.91-16.68-17.01-25.51-4.9-8.5-8.5-17.74-12.97-26.51-11.11-21.77-19.96-44.41-26.46-67.95-2.34-8.47-2.12-8.52-10.76-6.32-.64,.16-1.33,.14-1.97,.31-16.33,4.37-32.66,8.75-50.61,13.56Zm478.25,429.23c0,19.21,.11,37.68-.09,56.15-.04,4.02,1.22,5.31,5.16,5.07,18-1.09,36.07-1.46,54.01-3.15,18-1.7,36.07-3.69,53.76-7.3,23.34-4.76,46.62-10.3,69.42-17.19,30.98-9.36,61.12-21.19,90.01-35.94,11.7-5.97,23.32-12.1,35.17-18.26-31.77-54.98-63.08-109.17-93.75-162.26-21.78,9.71-42.35,19.34-63.3,28.06-12.84,5.34-26.07,9.99-39.48,13.68-13.11,3.61-26.57,6.43-40.06,8.11-21.75,2.71-43.64,4.34-65.51,6.08-3.98,.32-5.56,1.06-5.44,5.35,.29,10.49,.09,20.99,.09,31.49,0,7.95,0,15.9,0,24.61,43.75-.44,86.29-5.56,127.78-17.68,1.68,6.38,3.31,12.85,5.08,19.28,3.95,14.3,8.01,28.58,11.84,42.91,.21,.78-1.2,2.51-2.22,2.95-1.28,.55-3.01-.03-4.43,.33-22.63,5.91-45.44,10.83-68.78,12.89-19.55,1.72-39.12,3.27-58.68,4.79-3.29,.26-6.61,.04-10.59,.04ZM541.22,188.32c-23.59,5.86-46.44,13.99-68.84,23.35-22.56,9.43-44.6,19.97-65.76,33.19-1-2.41-1.7-4.76-2.89-6.83-8.83-15.44-17.8-30.8-26.62-46.25-1.31-2.29-2.42-2.63-4.68-1.21-7.4,4.65-15.09,8.86-22.37,13.69-29.51,19.62-57.79,40.85-83.67,65.14-5.63,5.28-11.19,10.65-16.11,15.33,44.64,44.64,88.85,88.86,133.27,133.27,1.48-1.36,3.6-3.42,5.83-5.35,12.53-10.81,24.51-22.35,37.77-32.18,16.73-12.41,33.67-24.74,52.63-33.74,17.38-8.25,34.61-16.85,52.32-24.32,12.06-5.09,24.8-8.57,37.28-12.63,2.51-.82,4.21-1.63,3.36-4.76-5.65-20.8-11.22-41.63-16.84-62.44-4.83-17.89-9.7-35.78-14.7-54.25Zm-13.74,1135.89c8.19,1.86,16.57,4.09,25.08,5.64,22.11,4.04,44.17,8.75,66.46,11.36,20.18,2.36,40.65,2.21,60.98,3.35,4.02,.22,5.12-1.11,5.08-5.06-.2-18.33-.11-36.66-.11-54.99,0-1.27,.14-2.55,.17-3.03,49.12-.16,96.9-6.3,143.98-18.92-5.49-20.42-10.67-39.72-15.91-59.2-42.34,11.45-84.72,16.53-128.19,16.49v-126.28c-9.45-.7-18.44-1.54-27.46-2.01-20.45-1.07-40.49-4.71-60.29-9.67-3.83-.96-5.03,.25-5.87,3.55-1.97,7.79-4.1,15.54-6.2,23.29-3.73,13.75-7.58,27.48-11.22,41.25-5.91,22.33-11.6,44.72-17.55,67.05-5.74,21.52-11.71,42.97-17.53,64.46-3.8,14.04-7.51,28.11-11.41,42.72Zm758.04-440.51c27.67-108.05,27.56-215.31-1.58-322.51-13.81-50.82-33.92-98.99-60.09-144.67-17.76,10.27-35.02,20.25-52.73,30.49,24.58,43.19,42.95,88.38,55.79,135.93-3.06,.54-5.51,.79-7.87,1.41-16.55,4.33-33.06,8.86-49.66,13-3.39,.84-4,2.24-3.27,5.18,1.47,5.91,3.24,11.77,4.21,17.76,3.32,20.49,6.82,40.96,9.31,61.56,1.58,13.12,1.49,26.45,2.17,39.68,.03,.61,.34,1.21,.48,1.69,.56,.15,.87,.3,1.19,.3,19.76-.24,39.53-.53,59.29-.6,.9,0,2.64,1.94,2.59,2.89-1.04,18.64-2.1,37.28-3.58,55.89-.82,10.35-1.87,20.74-3.75,30.94-3.23,17.46-7.26,34.77-10.73,52.19-.21,1.07,1.22,3.37,2.28,3.67,18.23,5.09,36.52,9.96,55.95,15.19ZM685.01,105.39c-110.06,.34-211.71,28.32-306.65,81.76,.39,1.23,.46,1.73,.7,2.14,8.81,15.23,17.8,30.35,26.36,45.72,2.12,3.81,3.24,5.58,8.02,3.06,16.14-8.49,32.44-16.73,48.98-24.41,23.6-10.95,48.22-19.23,73.22-26.39,2.58-.74,5.11-1.65,7.67-2.49,.77,2.76,1.59,5.52,2.32,8.29,3.87,14.73,7.74,29.47,11.57,44.22,2.44,9.41,2.41,9.42,12.13,6.74,.63-.17,1.3-.23,1.94-.37,20.06-4.49,40.11-8.92,60.74-10.09,19.28-1.09,38.54-3.44,57.81-3.49,17.44-.04,34.95,1.81,52.33,3.69,15.84,1.72,31.59,4.38,47.3,7.06,7.96,1.36,15.76,3.68,23.9,5.63,5.07-19.16,9.89-37.72,14.97-56.22,.86-3.12-.55-3.1-2.73-3.7-29.37-8.17-59.38-12.87-89.65-15.75-16.71-1.59-33.57-1.71-50.92-2.53v-62.88ZM313.62,508.07c.5-.76,.87-1.31,1.24-1.87,8.36-12.47,16.08-25.45,25.25-37.29,11.81-15.25,24.64-29.73,37.39-44.23,2.68-3.04,2.76-4.45,0-7.18-15.96-15.74-31.76-31.63-47.61-47.48-14.63-14.62-29.26-29.25-43.88-43.88-11.66-11.67-23.4-23.26-34.92-35.07-2.76-2.83-4.54-3.03-7.21-.03-7.49,8.39-15.63,16.23-22.71,24.94-15.6,19.2-31.33,38.34-45.79,58.38-10.64,14.74-19.85,30.58-28.77,46.46-8.52,15.18-16.24,30.85-23.6,46.63-13.77,29.55-24.89,60.1-33.46,91.59-1.06,3.89,0,4.78,3.45,5.66,16.41,4.19,32.82,8.41,49.08,13.16,4.49,1.31,5.8,.14,6.97-3.82,3.5-11.82,6.97-23.66,11.04-35.29,9.1-25.97,20.36-51.01,33.05-75.42,3.43-6.6,7.12-13.07,10.37-19.02,36.61,21.19,73.14,42.34,110.11,63.74Zm-2.18,2.43c-2.66-1.53-4.94-2.84-7.22-4.14-16.9-9.69-33.81-19.36-50.69-29.08-15.04-8.67-30.14-17.25-45-26.22-3.45-2.08-4.66-1.46-6.45,1.71-21.68,38.52-38.42,79.08-50.45,121.59-.84,2.97-1.5,6-2.25,9-3.08-.93-6.13-1.95-9.23-2.77-15.95-4.24-31.94-8.33-47.84-12.72-3.44-.95-4.78-.23-5.49,3.2-3.26,15.65-7.05,31.19-9.97,46.9-6.05,32.47-9.6,65.2-8.98,98.29,.13,7.18,.02,7.18,7.5,7.19,20.41,0,40.82,0,61.23,0,16.49,0,32.99-.03,49.48,.02,2.92,0,4.94-.08,5.13-4.09,.7-14.54,1.09-29.15,2.97-43.55,2.81-21.6,6.72-43.06,10.3-64.55,.94-5.61,2.4-11.14,3.66-16.9,3.44,1.16,6.49,2.38,9.64,3.23,15.15,4.08,30.33,8.05,45.49,12.08,7.07,1.88,6.44,1.67,8.93-5.28,7.4-20.64,14.96-41.24,23.22-61.55,4.46-10.96,10.48-21.29,16.03-32.36Zm747.88,431.38c-38.76,65.84-90.72,117.44-155.83,155.97,11.78,20.5,23.21,40.48,34.71,60.41,10.81,18.73,21.72,37.41,32.55,56.13,7.98,13.79,16.23,27.43,23.67,41.51,2.61,4.95,4.75,4.71,8.51,2.15,18.68-12.69,37.58-25.06,56.05-38.03,22.03-15.47,41.95-33.5,61.31-52.17,3.06-2.95,2.89-4.71-.04-7.6-16.28-16.03-32.36-32.26-48.53-48.4-12.53-12.51-25.08-25.01-37.06-36.94,13.59-15.9,28.06-31.58,41.07-48.39,13.1-16.92,24.75-34.96,37.62-53.36-18.57-10.75-36.01-20.85-54.04-31.28ZM800.13,308.01c-2.07,7.21-4.21,14.04-6,20.96-3.53,13.66-6.82,27.38-10.41,41.02-.27,1.01-2.38,2.45-3.3,2.24-9.56-2.24-18.94-5.37-28.57-7.09-11.81-2.11-23.81-3.29-35.76-4.51-7.73-.79-15.61-.43-23.28-1.57-4.2-.62-4.96,.4-4.95,4.08,.08,17.49,.15,34.99-.05,52.48-.05,4.09,1.45,4.89,5.23,5.11,13.67,.81,27.42,1.34,40.93,3.34,15.39,2.27,30.45,6.3,45.33,11.17,18.58,6.08,36.34,13.82,53.39,23.26,3.36,1.86,5.53,1.51,7.23-1.91,.58-1.18,1.33-2.28,1.98-3.42,9.8-17.08,19.56-34.17,29.39-51.23,10.63-18.45,21.31-36.87,32-55.28,6.04-10.4,12.2-20.73,18.22-31.15,3.41-5.9,6.62-11.92,10.06-18.14-3.94-1.98-7.13-3.68-10.39-5.21-19.51-9.17-38.71-19.11-58.66-27.17-15.52-6.27-31.96-10.28-48.04-15.11-8.62-2.59-17.24-5.46-26.06-7.06-15.98-2.9-32.07-5.37-48.2-7.24-15.71-1.82-31.54-2.6-47.31-3.96-4.06-.35-5.13,1.27-5.09,5.15,.18,16.16,.06,32.32,.09,48.48,.02,9.06-1.16,8.21,8.18,8.45,9.77,.25,19.57,.44,29.27,1.49,13.05,1.42,26.05,3.37,38.99,5.6,12.06,2.08,24.01,4.83,35.78,7.24Zm318.58,415.57c-.25,1.98-.68,4.29-.82,6.61-.74,12.55-.98,25.15-2.22,37.65-1.26,12.74-3.23,25.43-5.36,38.07-1.34,7.91-3.66,15.65-5.32,23.51-.75,3.55-.73,6.18,4.35,7.42,19.82,4.85,39.46,10.43,59.17,15.71,17.29,4.63,34.59,9.23,51.87,13.87,2.53,.68,4.03,.22,4.63-2.7,3.55-17.18,7.61-34.26,10.75-51.52,2.06-11.31,3.2-22.83,4.14-34.3,1.28-15.64,1.94-31.34,2.98-47,.25-3.71-1.5-4.49-4.77-4.44-8.66,.14-17.32,.04-25.98,.04-10.94,0-21.88,0-32.66,0-.29-.72-.52-1.02-.52-1.31,.46-21.72-.53-43.38-4.17-64.79-3.27-19.24-7.27-38.35-10.96-57.52-.61-3.15-2.2-3.66-5.36-2.78-19.77,5.49-39.61,10.71-59.42,16.05-17.74,4.78-35.46,9.67-53.24,14.3-3.02,.79-3.13,2.05-2.53,4.6,2.27,9.75,5.11,19.45,6.33,29.34,2.27,18.32,3.64,36.76,5.17,55.17,.24,2.93,.95,4.09,4.05,4.08,19.74-.11,39.49-.05,59.89-.05Zm-123.33-536.39c-9.41-4.84-18.27-9.2-26.95-13.89-24.95-13.49-51.11-24.21-77.81-33.55-34.01-11.9-68.81-20.92-104.48-26.25-17.23-2.57-34.5-5.11-51.84-6.66-13.53-1.21-27.21-.72-40.81-1.29-4.32-.18-5.76,1-5.69,5.51,.26,16.99,.09,33.99,.11,50.98,0,1.44,.19,2.88,.31,4.6,49.19-.24,97.08,7.04,144.88,19.13-.69,1.55-1.68,3.18-2.15,4.95-4.59,17.27-9.04,34.57-13.68,51.82-.99,3.69-.02,5.11,3.73,6.25,13.19,3.99,26.6,7.59,39.25,12.94,21.92,9.27,43.42,19.58,64.93,29.79,9.21,4.37,6.66,5.61,12.41-4.2,11.29-19.24,22.25-38.68,33.39-58.01,7.98-13.85,16.02-27.66,24.41-42.13ZM257.19,971.09c-43.59-75.77-64.57-157.48-66.15-244.23H68.07c-2.03,53.5,6.72,105.33,19.46,156.91,21.39-5.78,41.74-11.27,62.11-16.77,2.56,25.21,43.44,123.5,55.63,134.14,17.11-9.91,34.15-19.77,51.91-30.05ZM684.99,295.38c0-19.64-.13-38.93,.1-58.22,.05-4.45-1.33-5.97-5.7-5.57-8.7,.8-17.43,1.2-26.13,1.98-14.11,1.28-28.32,2.06-42.29,4.3-15.87,2.54-31.53,6.39-47.23,9.9-1.07,.24-2.6,2.55-2.4,3.62,.8,4.33,2.24,8.54,3.35,12.81,4.14,15.87,8.17,31.78,12.4,47.63,5.78,21.68,11.72,43.31,17.55,64.97,3.8,14.1,7.48,28.23,11.31,42.32,1.05,3.87,2.42,7.65,3.59,11.29,23.5-6.37,46.69-9.05,70.13-9.7,4.08-.11,5.48-1.15,5.41-5.37-.23-14.99-.09-29.98-.09-44.97v-14.71c10.65,1.02,20.77,2.29,30.93,2.89,20.43,1.2,40.52,4.41,60.29,9.63,2.8,.74,4.25,.48,5.06-2.65,3.11-12.02,6.44-23.99,9.68-35.98,1.73-6.4,3.46-12.81,5.26-19.46-36.72-10.05-73.42-14.29-111.22-14.71Zm-149.16,693.55c-31.6,54.76-62.77,108.78-94.14,163.13,2.04,1.31,3.83,2.77,5.86,3.72,21.78,10.15,43.38,20.73,65.48,30.11,12.81,5.43,26.44,8.91,39.71,13.25,2.43,.8,5.01,1.59,5.96-1.92,3.16-11.7,6.23-23.43,9.34-35.15,3.73-14.05,7.58-28.06,11.2-42.14,3.39-13.19,6.69-26.42,9.74-39.69,.76-3.3,2.18-3.09,4.67-2.36,6.89,2.02,13.74,4.39,20.79,5.64,13.27,2.35,26.63,4.32,40.02,5.86,9.94,1.14,19.99,1.36,30.18,2v-61.75c-53.07-.68-102.44-14.06-148.81-40.69Zm453.26-265.33c-1.21-60.8-18.4-115.89-51.67-166.14-25.61-38.69-58.71-69.27-98.44-93.04-.69,.92-1.14,1.4-1.46,1.95-11.2,19.32-22.4,38.64-33.58,57.98-7.6,13.13-15.21,26.25-22.74,39.41-5.2,9.08-4.83,8.66,3.76,14.61,9.44,6.55,19.19,13.12,27.04,21.37,9.24,9.71,16.78,21.08,24.62,32.05,2.15,3.01,3.58,3,6.29,1.39,10.49-6.2,21.05-12.27,31.58-18.41,6.72-3.92,13.44-7.86,20.05-11.73,4.33,9,8.88,17.55,12.6,26.43,4.67,11.15,10.13,22.28,12.6,33.97,3.85,18.22,5.51,36.9,7.99,55.4,.34,2.57,.07,4.84,3.91,4.81,18.81-.15,37.63-.07,57.46-.07Zm-720.23,111.34c-9.85-36.97-13.43-74.34-14.92-112.3,3.51,.32,6.3,.78,9.09,.79,16.33,.06,32.65-.15,48.98,.12,4.71,.08,5.97-1.65,6.14-6.04,.41-10.41,.67-20.88,2.1-31.17,2.51-18.11,5.85-36.1,8.98-55.01-38.85-10.4-78.54-21.02-118.11-31.61-.59,1.01-.95,1.41-1.07,1.86-7.11,26.38-11.61,53.26-13.98,80.43-1.47,16.89-2.24,33.93-1.9,50.88,.33,17.01,1.59,34.1,3.96,50.95,2.89,20.56,7.42,40.89,11.09,61.35,.73,4.07,2.3,5.04,6.4,3.91,17.31-4.8,34.72-9.26,53.24-14.14Zm473.23-208.98c31.47-54.54,62.75-108.73,94.09-163.03-46.56-26.3-95.46-39.69-148.28-40.48,0,2.62,0,4.43,0,6.24,0,21.72,0,43.44,0,65.16s0,43.46,0,65.19c0,15.66,.14,31.32-.09,46.98-.06,4.39,1.28,5.72,5.68,5.69,12.11-.08,23.66,2.71,34.63,7.9,4.57,2.17,9.21,4.2,13.97,6.35Zm97.72-163.58c1.81,.87,2.74,1.19,3.54,1.73,18.78,12.54,37.31,25.41,53.52,41.27,2.59,2.54,4.68,3.11,7.52,.25,17.41-17.57,34.92-35.04,52.42-52.52,12.72-12.72,25.49-25.4,38.19-38.14,4.88-4.9,9.6-9.96,14.49-14.85,7.24-7.23,14.59-14.35,21.83-21.58,1.56-1.55,2.64-2.87,.2-5.25-17.22-16.82-35.38-32.53-55.01-46.45-13.55-9.61-27.54-18.6-42.07-28.37-31.78,55.03-63.07,109.22-94.64,163.91Zm-230.06,554.76c18.03,5.24,36.15,8.05,54.51,9.34,7.53,.53,15.13,.46,22.68,.29,12.18-.27,24.51,.25,36.48-1.56,15.97-2.42,31.72-6.47,47.42-10.39,8.58-2.14,17.09-4.94,25.22-8.41,12.23-5.22,24.11-11.26,36.12-16.99,3.39-1.62,3.6-3.52,1.52-6.88-5.73-9.23-10.93-18.79-16.37-28.2-3.86-6.67-7.76-13.31-11.26-19.29-19.69,8.24-38.86,16.26-58.15,24.34-5.84-21.69-11.39-42.31-16.89-62.75-30.11,7.99-59.3,8.02-88.96,0-10.71,39.92-21.42,79.87-32.32,120.51Zm447.97-76.09c-17.58-10.21-34.21-19.93-50.97-29.41-.85-.48-3.51,.72-4.29,1.86-5.06,7.34-9.54,15.08-14.75,22.3-15.93,22.07-32.94,43.24-53.71,61.08-6.41,5.5-12.42,11.52-19.22,16.48-16.93,12.37-33.49,25.36-52.58,34.46-13.07,6.23-25.92,13.02-39.27,18.58-12.67,5.27-25.88,9.27-39.19,13.94,.19,1.37,.26,2.85,.62,4.25,4.18,16.06,8.4,32.1,12.64,48.15,1.71,6.45,1.96,6.54,8.38,4.64,2.68-.79,5.41-1.4,8.07-2.25,31.8-10.07,62.06-23.64,90.82-40.49,26.57-15.57,51.19-33.85,73.77-54.82,4.35-4.04,8.19-8.63,12.4-12.83,4.91-4.9,10.48-9.23,14.85-14.55,11.1-13.53,21.97-27.27,32.39-41.33,7.03-9.48,13.14-19.63,20.04-30.07ZM427.56,463.48c7.47-6.69,14.45-13.88,22.36-19.82,17.02-12.77,34.54-24.87,51.81-37.31,2.16-1.55,3.3-.84,4.1,1.28,.39,1.05,.37,2.3,.91,3.24,8.91,15.39,17.97,30.7,26.76,46.16,1.84,3.23,3.68,3.15,6.41,1.66,19.98-10.95,40.73-20.07,62.77-26.04,3.19-.86,3.6-2.34,2.76-5.41-5.68-20.72-11.12-41.5-16.71-62.25-4.5-16.67-9.26-33.28-13.57-50-.91-3.54-2.42-3.96-5.23-2.93-20.04,7.34-40.34,14.07-60.02,22.29-13.14,5.49-25.64,12.69-37.96,19.91-13.29,7.79-26.29,16.13-38.95,24.91-9.59,6.65-18.64,14.14-27.57,21.68-7.27,6.14-14,12.91-21.13,19.55,14.76,14.7,28.98,28.87,43.26,43.08Zm-46.36-40.28c-6.05,6.82-12.75,14.54-19.63,22.11-19.38,21.31-35.31,45.12-49.35,70.09-16.57,29.47-29.55,60.57-38.83,93.15-.83,2.91-.51,4.32,3,5.21,15.59,3.95,31.1,8.25,46.58,12.59,8.46,2.37,8.59,2.58,10.93-5.56,6.74-23.49,16.45-45.76,27.46-67.5,2.38-4.71,4.93-9.34,7.49-14.19,1.81,1.31,3.28,2.57,4.92,3.52,14.52,8.43,29.08,16.82,43.63,25.2,6.51,3.75,6.22,3.52,10.53-2.57,8.97-12.65,18.13-25.16,27.54-37.49,4.57-5.99,9.86-11.42,14.05-16.21-29.58-29.6-58.71-58.74-88.31-88.36Zm489.28,617.57c55.36-32.7,99.21-76.2,131.56-131.52-.76-.61-1.34-1.2-2.03-1.6-23.76-13.73-47.5-27.51-71.31-41.15-12.16-6.96-24.55-13.5-36.67-20.52-16.8-9.73-33.46-19.73-50.16-29.64-2.13-1.26-3.26-.8-4.76,1.29-7.7,10.72-15.64,21.26-22.87,31.01,29.48,29.82,59.26,59.94,90.1,91.13-21.31,16.5-42.2,32.67-63.69,49.31,9.44,16.36,19.51,33.81,29.82,51.67Zm-33.07-51.53c-5.36,2.75-9.9,5.06-14.43,7.41-20.08,10.41-41.16,18.17-63.03,23.84-22.28,5.78-44.99,8.42-67.95,8.96-3.98,.09-4.14,2.04-4.13,5.04,.07,17.66,.02,35.32,.06,52.98,0,1.93,.51,3.87,.5,5.8-.14,19.46-.39,38.91-.37,58.36,0,.99,2.18,2.84,3.33,2.83,8.78-.12,17.6-.2,26.33-1.06,13.26-1.3,26.54-2.78,39.67-5,11.94-2.02,23.72-5.06,35.52-7.85,1.05-.25,2.68-2.17,2.49-2.96-1.94-8.29-4.15-16.53-6.38-24.75-3.13-11.5-6.35-22.98-9.53-34.48,4.31-1.23,8.75-2.55,13.22-3.77,25.12-6.82,48.34-18.15,71.32-30.03,3.05-1.58,3.55-3.52,1.8-6.39-2.66-4.36-5.21-8.78-7.77-13.2-6.85-11.82-13.67-23.65-20.65-35.73Zm-152.43-567.18c-12.47,.93-24.43,.98-36.09,2.88-15.63,2.55-31.19,5.92-46.48,10.02-21.52,5.77-41.7,15.02-61.3,25.62-3.8,2.06-3.65,3.79-1.86,6.82,4.94,8.35,9.8,16.76,14.67,25.15,4.51,7.76,9.01,15.52,13.65,23.54,18.93-10.72,38.36-18.69,58.11-24.29,5.79,21.76,11.45,43.06,16.72,62.85-14.35,5.96-28.04,11.65-42.41,17.63,10.72,18.57,20.81,36.03,31.03,53.72,2.93-1.39,5.29-2.49,7.63-3.63,12.83-6.19,26.11-10.86,40.55-10.65,4.71,.07,5.89-1.42,5.87-5.97-.16-38.81-.09-77.63-.09-116.45,0-21.98,0-43.96,0-67.24Zm210.87,422.02c.84,.52,1.66,1.04,2.5,1.53,18.65,10.74,37.32,21.44,55.95,32.21,19.17,11.08,38.3,22.23,57.47,33.32,14.24,8.24,28.55,16.34,42.7,24.73,3.15,1.87,4.73,1.72,6.57-1.61,16.27-29.33,29.18-60.02,38.35-92.31,1.23-4.34-.62-5.25-3.83-6.12-22.2-6.04-44.37-12.18-66.58-18.16-18.93-5.1-37.92-10.01-56.87-15.04-16.04-4.26-32.14-8.35-48.07-13-4.89-1.43-5.93,.36-7.29,4.42-3.1,9.33-6.63,18.53-10.41,27.61-3.15,7.54-6.91,14.82-10.5,22.42Zm-425.12,251.73c1.69-2.82,2.99-4.91,4.21-7.04,10.02-17.37,20.01-34.77,30.05-52.13,10.91-18.85,21.9-37.65,32.78-56.52,8.15-14.14,15.88-28.52,24.41-42.42,2.69-4.38,1.57-6.02-2.03-8.31-14.08-8.94-27.67-18.56-39.39-30.56-2.62-2.68-4.43-2.02-6.89,.47-14.95,15.13-30.08,30.08-45.12,45.12-15.45,15.46-30.86,30.97-46.29,46.46-7.96,7.99-15.93,15.95-23.87,23.95-4.72,4.75-9.38,9.55-14.32,14.58,26.16,26.07,54.87,47.74,86.46,66.39Zm-213.84-369.17c1.22,36.73,4.92,72.56,14.73,107.75,2.32-.56,4.05-.94,5.75-1.4,19.76-5.34,39.53-10.67,59.29-16.06,18.51-5.05,36.99-10.25,55.52-15.23,18.98-5.09,37.98-10.12,57.05-14.86,3.68-.91,3.68-2.06,3.15-5.41-2.42-15.42-4.33-30.92-6.45-46.38-.39-2.84-.85-5.67-1.26-8.4h-187.79Zm646.84-215.5c56.34,59.28,86.15,129.53,88.04,211.55h60.42c-2.56-98.98-38.54-183.17-105.6-254.2-14.52,14.45-28.49,28.35-42.86,42.64Zm-102.64,211.99h124.32c-.53-41.71-11.62-79.98-32.07-116.07-18.91,11.01-37.14,21.61-55.46,32.28-1.2-2.31-2.3-4.82-3.74-7.13-6.98-11.17-15.14-21.28-24.47-30.7-9.47-9.58-20.09-17.39-31.11-24.88-2.5-1.7-4.01-1.47-5.48,1.22-2.61,4.79-5.44,9.45-8.16,14.18-6.8,11.83-13.58,23.67-20.45,35.65,35.24,22.13,52.87,54.27,56.61,95.45Zm-324.58-117.52c-.39-.24-1.19-.78-2.02-1.27-22.87-13.27-45.75-26.52-68.62-39.79-10.7-6.2-21.36-12.47-32.11-18.59-1.99-1.13-4.27-3-6.03,.83-7.84,17.04-16.42,33.77-23.59,51.09-4.54,10.97-6.63,22.93-10.57,34.18-6.16,17.55-8.48,35.77-10.58,54.05-1.3,11.3-1.92,22.67-2.95,34-.25,2.73,.91,3.53,3.41,3.53,18.33-.04,36.66,.04,54.99-.18,1.18-.01,3.21-2.12,3.36-3.43,.95-8.19,1.07-16.48,2.23-24.63,1.98-13.97,4.53-27.87,6.83-41.8,.47-2.84,.9-5.68,1.35-8.53,2.87,.8,5.73,1.63,8.62,2.39,12.54,3.32,25.07,6.65,37.62,9.9,5.31,1.37,10.67,2.55,14.64,3.5,8.04-18.97,15.59-36.79,23.42-55.25Zm-49.97,377.53c2.79-2.64,4.52-4.2,6.17-5.84,14.6-14.6,29.19-29.22,43.78-43.82,11.96-11.98,23.88-23.99,35.92-35.89,2.52-2.49,2.72-4.23,.05-6.89-4.08-4.07-7.94-8.43-11.41-13.03-6.83-9.08-13.37-18.39-19.95-27.66-1.36-1.91-2.61-3.45-5.16-1.97-15.33,8.97-30.71,17.85-45.96,26.94-5.99,3.57-5.86,3.79-8.98-1.98-.24-.44-.53-.85-.77-1.29-9.66-18.17-18.42-36.76-24.18-56.58-2.75-9.48-2.45-9.56-11.72-7.63-.16,.03-.34,0-.5,.04-15.53,4.07-31.06,8.11-46.57,12.23-2.39,.63-3.36,2.1-2.41,4.77,1.49,4.16,2.71,8.42,3.97,12.66,8.11,27.22,20.6,52.48,35.06,76.75,6.57,11.02,13.93,21.64,21.76,31.82,9.73,12.65,20.31,24.65,30.88,37.37Zm687.12-503c-20.37,11.79-39.98,23.15-59.6,34.5-14.18,8.2-28.36,16.38-42.57,24.53-5.61,3.22-5.64,3.4-2.59,8.97,12.32,22.48,22.59,45.84,29.81,70.49,2.71,9.25,2.72,9.43,11.79,7.11,19.35-4.96,38.65-10.09,57.96-15.18,7.33-1.93,14.65-3.93,21.97-5.91,10.43-2.84,20.86-5.69,31.37-8.56-11.15-40.9-27.01-79.23-48.14-115.93Zm-633.62,123.73c3.26,2.02,5.45,3.46,7.72,4.77,17.38,9.99,34.79,19.91,52.14,29.94,15.54,8.98,31,18.1,46.6,26.98,.97,.55,3.42,0,4.2-.89,2.37-2.71,4.17-5.92,6.36-8.8,3.14-4.12,5.91-8.71,9.76-12.04,6.75-5.83,14.2-10.86,21.74-16.51-10.8-18.6-21.42-36.89-32.1-55.28,3.42-1.61,7.07-3.42,10.79-5.06,7.24-3.18,14.4-6.59,21.81-9.31,9.47-3.47,9.56-3.22,7.83-13.12-.11-.65-.28-1.28-.44-1.92-3.85-14.42-7.73-28.83-11.54-43.25-.8-3.01-1.69-4.24-5.47-3.17-20.53,5.84-39.5,15.06-57.7,25.97-18.91,11.33-35.89,25.22-50.41,41.71-11.07,12.57-20.74,26.37-31.3,39.98Zm632.18-126.53c-20.44-34.58-43.86-66.03-71.41-94.35-4.92-5.06-5.01-5.05-10.19,.13-14.28,14.27-28.52,28.58-42.8,42.86-12.23,12.23-24.42,24.51-36.79,36.6-2.69,2.63-2.58,4.27,0,6.89,19.44,19.77,35.92,41.86,50.39,65.46,2.43,3.96,4.33,4.14,8.19,1.87,23.72-13.93,47.59-27.58,71.41-41.33,10.26-5.93,20.5-11.9,31.21-18.12Zm-609.74-68.36c-5.3,3.51-9.75,6.64-14.37,9.48-20.34,12.52-38.5,27.79-56,43.93-2.39,2.2-2.56,3.72-.18,6.02,13.63,13.17,27.19,26.42,40.63,39.77,.8,.8,1.11,3.29,.49,4.1-1.63,2.11-4.01,3.62-5.9,5.56-15.18,15.54-27.51,33.26-39.33,51.38-1.53,2.34-1.52,3.92,1.32,5.53,14.85,8.47,29.63,17.04,44.3,25.81,4.21,2.52,6.27,1.71,8.92-2.39,11.19-17.26,23-34.22,38.75-47.64,12.79-10.9,26.53-20.7,40.12-30.63,3.07-2.24,3.29-3.72,1.55-6.69-10.45-17.84-20.8-35.75-31.15-53.65-5.86-10.13-11.64-20.3-17.47-30.44-3.77-6.55-7.58-13.08-11.67-20.14Zm390.95,433.85c1.96-3.57,4.01-6.6,5.38-9.92,5.64-13.66,11.1-27.4,16.54-41.15,.87-2.21,1.31-4.59,1.95-6.9,2.3,.64,4.59,1.29,6.89,1.93,18,4.97,36,9.94,54.58,15.06,6.84-24.86,9.63-49.8,10.29-75.09h-187.58c-1.47,8.19-2.97,16.07-4.19,23.99-.13,.82,1.28,2.46,2.28,2.77,5.64,1.75,11.35,3.28,17.06,4.77,12.23,3.2,24.42,6.51,36.72,9.4,5.8,1.37,5.86,.96,3.49,6.16-.67,1.48-.98,3.13-1.59,4.64-4.59,11.22-9.22,22.42-14.05,34.15,16.95,9.79,34.32,19.83,52.23,30.18Zm-561.92-21.32c-10.06,2.6-19.09,4.87-28.08,7.29-9.02,2.42-17.97,5.11-27.01,7.43-3.2,.82-4.01,2.02-2.87,5.24,2.27,6.35,4.15,12.84,6.15,19.28,9.37,30.15,23.39,58.18,39.28,85.3,5.57,9.5,11.31,19.03,18.13,27.64,13.71,17.32,28.22,34,42.35,50.98,2.19,2.63,3.84,2.17,6.05-.09,8.74-8.93,17.57-17.77,26.49-26.51,4.49-4.4,9.25-8.51,14.34-13.17-46.06-47.13-77.44-101.36-94.83-163.38Zm769.07,13.13c7.84-15.06,17.89-93.74,14.58-108.12-17.04,0-34.16,0-51.28,0-22.64,0-45.28,.08-67.92-.07-3.89-.03-5.26,1.03-5.2,5.07,.08,6.1-.36,12.23-.94,18.31-.81,8.51-1.67,17.04-3.03,25.48-1.43,8.84-3.47,17.58-5.45,27.36,19.93,4.99,39.97,9.75,59.86,15.08,19.91,5.34,39.66,11.26,59.38,16.89Zm-457.89,59.47c1.62,.64,2.65,1.18,3.75,1.45,15.01,3.81,30.37,5.19,45.75,4.84,15.44-.35,30.57-3.46,45.37-8.04,14.94-4.62,28.89-11.44,41.9-19.96,9.31-6.1,17.94-13.23,26.86-19.92,2.43-1.82,2.23-3.83,.21-5.85-12.83-12.83-25.68-25.64-38.48-38.5-1.77-1.78-2.75-1.67-4.82,.09-6.61,5.63-13.16,11.59-20.6,15.92-7.16,4.16-15.41,6.42-23.17,9.55-1.65,.66-3.25,1.46-4.76,2.15-5.59-20.99-10.94-41.08-16.31-61.27-1.64,0-2.97-.13-4.28,.02-4.79,.54-9.5,1.62-14.37,.08-4.26-1.35-5.87,1.64-6.76,5.04-5.41,20.55-10.73,41.12-16.16,61.66-4.61,17.45-9.34,34.87-14.13,52.73Zm-258.51-170.5c3.13,0,5.92,.03,8.71,0,17.76-.24,35.52-.69,53.28-.69,19.43,0,38.86,.48,58.29,.6,1.47,0,3.88-.91,4.25-1.96,.91-2.57,1.17-5.47,1.18-8.24,.04-17.69,4.72-34.38,11.13-50.63,3.3-8.36,7.26-16.45,11.17-25.21-17.53-10.11-34.96-20.16-52.67-30.37-10.02,18.95-19.4,37.48-23.16,58.07-10.35-2.87-20.59-5.78-30.88-8.56-10.26-2.77-20.55-5.42-30.8-8.12-7.45,20.6-10.64,60.44-10.5,75.11Zm425.59,129.17c.31-.44,.63-.89,.94-1.33-2.27,1.87-4.49,3.82-6.83,5.61-9.49,7.24-18.41,15.51-28.71,21.34-11.22,6.35-23.6,10.77-35.74,15.3-4.7,1.75-5.5,3.65-4.23,8.12,4.2,14.85,8.09,29.8,12.08,44.71,2.19,8.2,2.28,8.52,10.32,5.99,16.28-5.13,32.06-11.46,46.49-20.81,.97-.63,3.97-.03,4.5,.88,6.58,11.38,12.83,22.94,19.27,34.4,3.52,6.27,7.25,12.42,10.87,18.59,15.76-8.29,53.82-37.61,59.06-44.79-29.46-29.46-58.75-58.73-88.03-88.01Zm-249.28-2.18c-9.81-12.87-19.78-23.68-27-36.09-6.97-11.98-11.05-25.65-16.58-38.49-.58-1.35-2.44-3.13-3.63-3.07-3.07,.16-6.12,1.13-9.14,1.95-19.1,5.19-38.17,10.47-57.28,15.63-15.54,4.19-31.11,8.25-46.67,12.36-2.98,.79-5.13,1.73-3.93,5.76,6.39,21.37,14.92,41.81,25.59,61.4,1.99,3.65,3.75,4.16,7.28,2.05,11.74-7.02,23.65-13.75,35.47-20.61,5.18-3.01,10.34-6.07,15.58-9.15,.61,1.84,.81,3.37,1.57,4.55,9.47,14.73,19.54,28.99,31.56,41.83,3.36,3.59,5.3,3.06,8.29-.17,5.16-5.58,10.63-10.88,16.1-16.18,7.6-7.37,15.31-14.63,22.78-21.76Zm2.63,2.17c-14.59,13.91-29.12,27.75-44.36,42.28,8.82,7.24,16.7,14.32,25.22,20.52,7.63,5.56,16,10.1,23.92,15.29,.57,.37,.44,2.5,0,3.55-.53,1.27-1.91,2.16-2.62,3.39-8.68,14.93-17.27,29.91-25.98,44.82-1.68,2.88-2.03,4.69,1.52,6.67,19.9,11.06,40.75,19.79,62.61,26.11,2.67,.77,3.95-.14,4.76-3.23,5.39-20.59,11.14-41.07,16.68-61.62,4.31-15.99,8.44-32.03,12.69-48.04,1.83-6.89,1.62-6.41-5.23-9.08-11.95-4.65-24.3-8.9-35.21-15.44-12.35-7.4-23.3-17.15-33.99-25.22Zm203.7-50.37c1.33,1.68,2.59,3.61,4.19,5.22,7.09,7.17,14.3,14.22,21.42,21.35,5.01,5.03,9.81,10.28,15.03,15.09,1.31,1.21,4.94,2.14,5.64,1.41,4.29-4.48,8.39-9.24,11.9-14.36,4.37-6.36,7.65-13.49,12.25-19.66,8.09-10.86,12.35-23.34,16.69-35.87,1.01-2.93,1.01-4.45-2.93-5.31-9.12-2-18.02-5-27.07-7.35-8.9-2.32-17.82-4.69-26.86-6.32-3.91-.71-4.18-1.49-2.8-4.92,3.21-7.99,4.34-16.35,3.46-24.89h-59.83c-1.47,5.24-2.18,10.37-4.32,14.8-3.15,6.52-6.44,13.39-11.34,18.52-4.53,4.74-11.34,7.25-16.97,11.02-1.56,1.05-3.81,3.39-3.51,4.57,4.44,17.49,9.35,34.86,13.92,52.32,.85,3.23,1.9,4.34,5.08,2.74,8.92-4.48,18.21-8.32,26.73-13.45,6.85-4.13,12.78-9.77,19.34-14.91Zm-138.11,18.46c1.68-2.13,2.62-3.06,3.27-4.17,9.03-15.54,18.06-31.07,26.92-46.7,.58-1.02,.39-3.62-.33-4.07-5.5-3.46-9.75-7.93-13.28-13.41-4.16-6.48-8.31-12.91-8.27-20.87,.02-3.94-1.15-5.21-5.13-5.17-17.81,.18-35.63,.07-53.45,.09-1.12,0-2.23,.25-4.3,.5,1.7,9.89,3.34,19.48,4.97,28.97-2.57,.44-5.2,.7-7.72,1.34-15.93,4.06-31.84,8.21-47.75,12.32-5.22,1.35-5.61,2.29-3.84,7.72,4.03,12.37,9.83,23.78,16.31,35.11,6.54,11.44,14.23,21.73,22.71,31.63,2.71,3.17,4.55,2.68,7.19-.07,6.3-6.59,12.98-12.82,19.28-19.4,6.81-7.11,13.33-14.5,20.12-21.64,.5-.52,2.51-.41,3.17,.16,6.59,5.62,13.04,11.4,20.12,17.66Zm-53.15-67.68c-.88-7.74-1.74-15.38-2.63-23.01-.26-2.25-.66-4.48-1-6.72,2.54,.06,5.08,.16,7.62,.16,16.33,.01,32.66,.03,48.98,0,9.1-.02,8.38,1.22,8.4-8.72,0-.32-.17-.64-.41-1.48-6.65-1.89-13.55-3.97-20.51-5.8-17.07-4.49-34.2-8.76-51.25-13.31-13.78-3.68-27.49-7.58-41.2-11.51-4.22-1.21-7.6-.81-8.29,4.14-1.8,12.96-3.32,25.96-5.07,39.89h-63.31c1.05,9.96,1.76,19.14,3.07,28.23,1.26,8.75,3.23,17.39,4.71,26.11,.58,3.41,2.26,3.88,5.27,3.05,21.28-5.83,42.57-11.61,63.88-17.33,17.27-4.63,34.56-9.16,51.75-13.7Zm109.15-140.39c-41.84,4.11-74.05,22.22-95.03,58.46-3.18-2.02-6.26-4.11-9.46-5.99-13.91-8.18-27.85-16.31-41.81-24.4-1.79-1.04-3.91-2.56-5.29,.63-4.68,10.87-9.45,21.71-13.92,32.67-.9,2.21-1.11,4.61,2.7,5.58,20.16,5.14,40.24,10.56,60.34,15.94,17.79,4.76,35.54,9.64,53.36,14.27,1.15,.3,3.67-.76,3.96-1.68,1.79-5.78,5.07-10.65,9.12-14.9,4.2-4.41,8.34-9.39,13.55-12.17,6.76-3.6,14.55-5.27,22.49-7.98v-60.43Zm113.7,110.82c-1.73-32.08-13.85-58.79-36.71-79.96-20.43-18.93-44.96-29.38-73.78-30.42,0,20.04-.05,39.31,.15,58.58,.01,.99,2.17,2.7,3.45,2.83,12.05,1.21,22.33,7.04,30.34,15.09,8.02,8.07,13.9,18.34,15.02,30.46,.11,1.23,1.97,3.27,3.03,3.28,19.13,.2,38.26,.15,58.49,.15Zm-110.59-47.8c-18.39,1.58-31.96,9.61-41.78,23.76-5.29,7.63-9.16,16.85-8.42,25.52,2.35,27.9,22.62,48.74,48.94,48.61,27.85-.13,49-22.86,48.67-48.81-.35-27.42-22.51-46.44-47.41-49.08Zm-57,148.88c-6.94-5.53-13.93-11-20.78-16.63-1.84-1.51-2.79-1.94-4.81,.12-12.87,13.05-26,25.85-38.85,38.92-.78,.8-.58,3.88,.3,4.77,3.23,3.28,6.74,6.39,10.53,9,7.69,5.29,15.78,10,23.44,15.33,10.92,7.6,23.08,12.35,35.63,16.3,2.38,.75,4.39,.32,4.85-3.12,.5-3.71,1.93-7.29,2.86-10.95,3.87-15.2,7.53-30.46,11.58-45.62,5.04-18.85,10.27-37.66,15.68-56.41,1.38-4.8-2.51-4.42-4.66-5.91-2.57-1.78-4.26-.82-5.66,1.62-5.78,10.11-11.62,20.18-17.42,30.29-4.19,7.32-8.34,14.66-12.69,22.3Z"/>
</svg>